solid Mesh
 facet normal -1 -0 -0
  outer loop
   vertex -21 21 21
   vertex -21 21 -21
   vertex -21 -21 21
  endloop
 endfacet
 facet normal -1 0 0
  outer loop
   vertex -21 21 -21
   vertex -21 -21 -21
   vertex -21 -21 21
  endloop
 endfacet
 facet normal 1 -0 0
  outer loop
   vertex 21 -21 21
   vertex 21 21 -21
   vertex 21 21 21
  endloop
 endfacet
 facet normal 1 0 0
  outer loop
   vertex 21 -21 21
   vertex 21 -21 -21
   vertex 21 21 -21
  endloop
 endfacet
 facet normal 0 -1 0
  outer loop
   vertex -21 -21 -21
   vertex 21 -21 -21
   vertex -21 -21 21
  endloop
 endfacet
 facet normal 0 -1 0
  outer loop
   vertex -21 -21 21
   vertex 21 -21 -21
   vertex 21 -21 21
  endloop
 endfacet
 facet normal 0 1 0
  outer loop
   vertex -21 21 21
   vertex 21 21 -21
   vertex -21 21 -21
  endloop
 endfacet
 facet normal 0 1 0
  outer loop
   vertex 21 21 21
   vertex 21 21 -21
   vertex -21 21 21
  endloop
 endfacet
 facet normal 0 0 -1
  outer loop
   vertex -21 -21 -21
   vertex -21 21 -21
   vertex 21 -21 -21
  endloop
 endfacet
 facet normal 0 0 -1
  outer loop
   vertex 21 -21 -21
   vertex -21 21 -21
   vertex 21 21 -21
  endloop
 endfacet
 facet normal 0 0 1
  outer loop
   vertex 21 -21 21
   vertex -21 21 21
   vertex -21 -21 21
  endloop
 endfacet
 facet normal 0 0 1
  outer loop
   vertex 21 21 21
   vertex -21 21 21
   vertex 21 -21 21
  endloop
 endfacet
endsolid Mesh
