solid Mesh
 facet normal -1 -0 -0
  outer loop
   vertex -0.5334 1.3716 0.5334
   vertex -0.5334 1.3716 -0.5334
   vertex -0.5334 0.3048 0.5334
  endloop
 endfacet
 facet normal -1 0 0
  outer loop
   vertex -0.5334 1.3716 -0.5334
   vertex -0.5334 0.3048 -0.5334
   vertex -0.5334 0.3048 0.5334
  endloop
 endfacet
 facet normal 1 -0 0
  outer loop
   vertex 0.5334 0.3048 0.5334
   vertex 0.5334 1.3716 -0.5334
   vertex 0.5334 1.3716 0.5334
  endloop
 endfacet
 facet normal 1 0 0
  outer loop
   vertex 0.5334 0.3048 0.5334
   vertex 0.5334 0.3048 -0.5334
   vertex 0.5334 1.3716 -0.5334
  endloop
 endfacet
 facet normal 0 -1 0
  outer loop
   vertex -0.5334 0.3048 -0.5334
   vertex 0.5334 0.3048 -0.5334
   vertex -0.5334 0.3048 0.5334
  endloop
 endfacet
 facet normal 0 -1 0
  outer loop
   vertex -0.5334 0.3048 0.5334
   vertex 0.5334 0.3048 -0.5334
   vertex 0.5334 0.3048 0.5334
  endloop
 endfacet
 facet normal 0 1 0
  outer loop
   vertex -0.5334 1.3716 0.5334
   vertex 0.5334 1.3716 -0.5334
   vertex -0.5334 1.3716 -0.5334
  endloop
 endfacet
 facet normal 0 1 0
  outer loop
   vertex 0.5334 1.3716 0.5334
   vertex 0.5334 1.3716 -0.5334
   vertex -0.5334 1.3716 0.5334
  endloop
 endfacet
 facet normal 0 0 -1
  outer loop
   vertex -0.5334 0.3048 -0.5334
   vertex -0.5334 1.3716 -0.5334
   vertex 0.5334 0.3048 -0.5334
  endloop
 endfacet
 facet normal 0 0 -1
  outer loop
   vertex 0.5334 0.3048 -0.5334
   vertex -0.5334 1.3716 -0.5334
   vertex 0.5334 1.3716 -0.5334
  endloop
 endfacet
 facet normal 0 0 1
  outer loop
   vertex 0.5334 0.3048 0.5334
   vertex -0.5334 1.3716 0.5334
   vertex -0.5334 0.3048 0.5334
  endloop
 endfacet
 facet normal 0 0 1
  outer loop
   vertex 0.5334 1.3716 0.5334
   vertex -0.5334 1.3716 0.5334
   vertex 0.5334 0.3048 0.5334
  endloop
 endfacet
endsolid Mesh
